<?xml version="1.0" encoding="UTF-8"?>
<!DOCTYPE svg PUBLIC "-//W3C//DTD SVG 1.1//EN" "http://www.w3.org/Graphics/SVG/1.1/DTD/svg11.dtd">
<!-- Creator: CorelDRAW -->
<svg xmlns="http://www.w3.org/2000/svg" xml:space="preserve" width="36.7102mm" height="36.7102mm" version="1.1" style="shape-rendering:geometricPrecision; text-rendering:geometricPrecision; image-rendering:optimizeQuality; fill-rule:evenodd; clip-rule:evenodd"
viewBox="0 0 3671.02 3671.02"
 xmlns:xlink="http://www.w3.org/1999/xlink"
 xmlns:xodm="http://www.corel.com/coreldraw/odm/2003">
 <defs>
  <style type="text/css">
   <![CDATA[
    .fil0 {fill:#003399}
   ]]>
  </style>
 </defs>
 <g id="Layer_x0020_1">
  <metadata id="CorelCorpID_0Corel-Layer"/>
  <path class="fil0" d="M3671.02 1835.51c0,-1013.72 -821.79,-1835.51 -1835.51,-1835.51 -1013.72,0 -1835.51,821.79 -1835.51,1835.51 0,1013.72 821.79,1835.51 1835.51,1835.51 1013.72,0 1835.51,-821.79 1835.51,-1835.51zm-1791.98 -372.47c-52.29,-24.73 -96.4,-47.2 -132.22,-67.26 -87.37,-48.95 -144.15,-92.63 -170.39,-131.11 -26.23,-38.42 -39.31,-82.11 -39.31,-131.06 0,-73.38 33.19,-132.8 99.59,-178.26 66.43,-45.4 174.77,-68.14 325.11,-68.14 136.29,0 293.55,22.74 471.81,68.14 167.85,42.8 267.22,71.76 413.37,136.26l57.58 -619.12c-134.24,-53.72 -268.54,-92.85 -402.81,-117.4 -143.3,-26.2 -314.55,-39.34 -513.78,-39.34 -405.41,0 -710.4,77.79 -914.84,233.31 -204.49,155.54 -306.71,378.34 -306.71,668.43 0,167.76 32.33,305.86 97.01,414.2 64.63,108.34 156.37,198.34 275.21,270.01 118.84,71.66 260.4,140.66 424.7,207.09l21.98 9.19 293.7 -654.94zm-87.06 744.94c52.29,24.73 96.4,47.2 132.22,67.26 87.37,48.95 144.15,92.63 170.39,131.11 26.23,38.42 39.31,82.11 39.31,131.06 0,73.38 -33.19,132.8 -99.59,178.26 -66.43,45.4 -174.77,68.14 -325.11,68.14 -136.29,0 -293.55,-22.74 -471.81,-68.14 -167.85,-42.8 -267.22,-71.76 -413.37,-136.26l-57.58 619.12c134.24,53.72 268.54,92.85 402.81,117.4 143.3,26.2 314.55,39.34 513.78,39.34 405.41,0 710.4,-77.79 914.84,-233.31 204.49,-155.54 306.71,-378.34 306.71,-668.43 0,-167.76 -32.33,-305.86 -97.01,-414.2 -64.63,-108.34 -156.37,-198.34 -275.21,-270.01 -118.84,-71.66 -260.4,-140.66 -424.7,-207.09l-21.98 -9.19 -293.7 654.94z"/>
 </g>
</svg>
