<?xml version="1.0" encoding="UTF-8"?>
<!DOCTYPE svg PUBLIC "-//W3C//DTD SVG 1.1//EN" "http://www.w3.org/Graphics/SVG/1.1/DTD/svg11.dtd">
<!-- Creator: CorelDRAW -->
<svg xmlns="http://www.w3.org/2000/svg" xml:space="preserve" width="73.6422mm" height="11.7822mm" version="1.1" style="shape-rendering:geometricPrecision; text-rendering:geometricPrecision; image-rendering:optimizeQuality; fill-rule:evenodd; clip-rule:evenodd"
viewBox="0 0 7364.22 1178.22"
 xmlns:xlink="http://www.w3.org/1999/xlink"
 xmlns:xodm="http://www.corel.com/coreldraw/odm/2003">
 <defs>
  <style type="text/css">
   <![CDATA[
    .fil0 {fill:#003399;fill-rule:nonzero}
   ]]>
  </style>
 </defs>
 <g id="Layer_x0020_1">
  <metadata id="CorelCorpID_0Corel-Layer"/>
  <path class="fil0" d="M7364.22 901.2c0,91.17 -33.9,160.13 -101.69,206.88 -67.8,46.76 -158.97,70.14 -273.52,70.14 -65.45,0 -121.85,-5.26 -169.19,-15.78 -47.34,-10.52 -89.13,-25.13 -125.36,-43.84l0 -140.26c37.4,18.7 82.69,35.94 135.88,51.72 53.18,15.78 107.24,23.67 162.18,23.67 78.31,0 135,-12.56 170.07,-37.69 35.06,-25.13 52.6,-58.74 52.6,-100.82 0,-23.37 -6.43,-44.42 -19.29,-63.11 -12.86,-18.71 -35.94,-37.41 -69.25,-56.11 -33.32,-18.71 -80.95,-39.74 -142.9,-63.12 -60.78,-23.38 -112.79,-46.76 -156.04,-70.13 -43.25,-23.38 -76.56,-51.43 -99.94,-84.16 -23.38,-32.73 -35.06,-74.81 -35.06,-126.24 0,-79.48 32.43,-140.85 97.3,-184.09 64.87,-43.25 149.91,-64.88 255.11,-64.88 57.27,0 110.75,5.85 160.42,17.54 49.68,11.69 96.14,26.88 139.39,45.58l-52.6 122.73c-39.74,-16.36 -81.23,-30.39 -124.48,-42.08 -43.25,-11.69 -87.66,-17.53 -133.25,-17.53 -63.12,0 -111.34,10.23 -144.65,30.68 -33.31,20.46 -49.97,48.22 -49.97,83.28 0,26.89 7.6,49.1 22.79,66.63 15.2,17.53 40.62,35.07 76.27,52.6 35.65,17.53 83.28,37.4 142.9,59.61 59.61,22.21 110.45,45 152.53,68.38 42.08,23.38 74.23,51.72 96.44,85.03 22.2,33.32 33.31,75.11 33.31,125.37zm-7029.22 -97.77c17.08,8.08 31.49,15.42 43.19,21.97 28.54,15.99 47.09,30.26 55.66,42.83 8.57,12.55 12.84,26.82 12.84,42.81 0,23.97 -10.84,43.38 -32.53,58.23 -21.7,14.83 -57.09,22.26 -106.2,22.26 -44.52,0 -95.89,-7.43 -154.12,-22.26 -54.83,-13.98 -87.29,-23.44 -135.03,-44.51l-18.81 202.24c43.85,17.55 87.72,30.33 131.58,38.35 46.81,8.56 102.75,12.85 167.83,12.85 132.43,0 232.06,-25.41 298.84,-76.21 66.8,-50.81 100.19,-123.59 100.19,-218.35 0,-54.8 -10.56,-99.91 -31.69,-135.3 -21.11,-35.39 -51.08,-64.79 -89.9,-88.2 -38.82,-23.41 -85.06,-45.95 -138.73,-67.65l-7.18 -3 -95.94 213.94zm28.44 -243.34c-17.08,-8.08 -31.49,-15.42 -43.19,-21.97 -28.54,-15.99 -47.09,-30.26 -55.66,-42.83 -8.57,-12.55 -12.84,-26.82 -12.84,-42.81 0,-23.97 10.84,-43.38 32.53,-58.23 21.7,-14.83 57.09,-22.26 106.2,-22.26 44.52,0 95.89,7.43 154.12,22.26 54.83,13.98 87.29,23.44 135.03,44.51l18.81 -202.24c-43.85,-17.55 -87.72,-30.33 -131.58,-38.35 -46.81,-8.56 -102.75,-12.85 -167.83,-12.85 -132.43,0 -232.06,25.41 -298.84,76.21 -66.8,50.81 -100.19,123.59 -100.19,218.35 0,54.8 10.56,99.91 31.69,135.3 21.11,35.39 51.08,64.79 89.9,88.2 38.82,23.41 85.06,45.95 138.73,67.65l7.18 3 95.94 -213.94zm939.62 409.48c29.22,0 57.27,-2.63 84.16,-7.89 26.88,-5.25 53.77,-12.56 80.65,-21.91l0 194.62c-28.05,12.85 -62.83,23.37 -104.32,31.55 -41.49,8.18 -86.79,12.28 -135.88,12.28 -57.28,0 -108.41,-9.36 -153.42,-28.06 -45,-18.7 -80.64,-50.84 -106.95,-96.43 -26.29,-45.58 -39.45,-109.87 -39.45,-192.86l0 -461.12 -124.48 0 0 -110.46 143.77 -87.66 75.39 -201.63 166.57 0 0 203.38 268.25 0 0 196.37 -268.25 0 0 461.12c0,36.24 10.52,63.41 31.56,81.53 21.04,18.12 48.5,27.17 82.4,27.17zm720.26 -783.72c132.08,0 236.69,37.7 313.84,113.09 77.15,75.39 115.72,182.63 115.72,321.73l0 126.24 -617.16 0c2.33,73.63 24.25,131.49 65.74,173.57 41.5,42.08 99.06,63.12 172.71,63.12 60.78,0 116.59,-6.14 167.43,-18.41 50.85,-12.27 103.15,-31.27 156.92,-56.98l0 201.63c-47.92,23.38 -97.6,40.62 -149.03,51.72 -51.43,11.1 -113.96,16.66 -187.6,16.66 -95.85,0 -180.59,-17.83 -254.23,-53.48 -73.63,-35.65 -131.5,-89.42 -173.57,-161.3 -42.08,-71.89 -63.12,-163.35 -63.12,-274.39 0,-111.05 18.99,-203.97 56.98,-278.78 37.99,-74.81 90.88,-130.91 158.67,-168.32 67.8,-37.4 146.7,-56.1 236.7,-56.1zm1.75 185.85c-51.43,0 -93.51,16.36 -126.24,49.09 -32.73,32.73 -52.01,83.58 -57.85,152.54l366.43 0c-1.17,-57.27 -16.65,-105.2 -46.46,-143.77 -29.8,-38.58 -75.1,-57.86 -135.88,-57.86zm1731.91 -185.85c108.7,0 190.82,27.76 246.34,83.28 55.52,55.52 83.28,144.65 83.28,267.38l0 624.17 -261.24 0 0 -559.3c0,-137.92 -47.93,-206.89 -143.77,-206.89 -68.96,0 -118.06,24.55 -147.28,73.64 -29.22,49.09 -43.83,119.81 -43.83,212.15l0 480.4 -261.24 0 0 -559.3c0,-137.92 -47.93,-206.89 -143.77,-206.89 -72.47,0 -122.44,27.18 -149.91,81.53 -27.47,54.35 -41.2,132.38 -41.2,234.07l0 450.59 -261.24 0 0 -957.3 199.87 0 35.07 122.73 14.03 0c29.21,-49.09 69.25,-84.74 120.09,-106.95 50.85,-22.21 103.74,-33.31 158.68,-33.31 70.13,0 129.45,11.4 177.96,34.19 48.51,22.79 86.2,58.15 113.08,106.07l22.8 0c29.22,-49.09 69.84,-84.74 121.85,-106.95 52.02,-22.21 105.49,-33.31 160.43,-33.31zm955.2 992.37c-84.16,0 -158.39,-16.95 -222.67,-50.85 -64.29,-33.89 -114.84,-86.49 -151.66,-157.8 -36.82,-71.29 -55.23,-162.47 -55.23,-273.51 0,-115.72 18.99,-209.81 56.98,-282.28 37.99,-72.47 90.3,-125.65 156.92,-159.55 66.63,-33.9 142.02,-50.85 226.18,-50.85 46.75,0 92.63,4.97 137.63,14.91 45,9.93 81.53,21.91 109.58,35.94l-47.34 127.99c-28.05,-10.52 -60.78,-20.45 -98.18,-29.81 -37.41,-9.35 -72.47,-14.02 -105.2,-14.02 -184.68,0 -277.02,118.64 -277.02,355.92 0,113.38 22.5,200.17 67.5,260.36 45,60.2 111.92,90.3 200.75,90.3 50.27,0 95.27,-5.26 135.01,-15.78 39.74,-10.52 75.97,-23.38 108.7,-38.58l0 136.76c-31.56,16.37 -66.33,28.93 -104.32,37.7 -37.99,8.76 -83.86,13.15 -137.63,13.15zm1463.65 -974.84c106.37,0 185.85,27.47 238.45,82.41 52.6,54.93 78.9,142.6 78.9,262.99l0 611.9 -152.54 0 0 -604.88c0,-148.45 -63.7,-222.67 -191.11,-222.67 -91.17,0 -156.33,26.3 -195.49,78.9 -39.16,52.6 -58.73,129.15 -58.73,229.68l0 518.97 -152.54 0 0 -604.88c0,-148.45 -64.29,-222.67 -192.86,-222.67 -94.68,0 -160.14,29.22 -196.37,87.66 -36.24,58.45 -54.36,142.61 -54.36,252.48l0 487.41 -154.29 0 0 -939.76 124.49 0 22.79 127.99 8.77 0c29.22,-49.1 68.67,-85.62 118.34,-109.58 49.68,-23.96 102.57,-35.95 158.68,-35.95 147.27,0 243.12,52.6 287.54,157.8l8.76 0c31.56,-53.77 74.23,-93.51 128,-119.23 53.76,-25.71 111.62,-38.57 173.57,-38.57z"/>
 </g>
</svg>
